<svg width="17" height="16" viewBox="0 0 17 16" fill="none" xmlns="http://www.w3.org/2000/svg">
<path d="M12.6009 5.38145C12.9415 5.72207 12.9415 6.27832 12.6009 6.61895L8.60088 10.6189C8.26025 10.9596 7.704 10.9596 7.36338 10.6189L5.36338 8.61895C5.02275 8.27832 5.02275 7.72207 5.36338 7.38145C5.704 7.04082 6.26025 7.04082 6.60088 7.38145L7.98213 8.7627L11.3634 5.38145C11.704 5.04082 12.2603 5.04082 12.6009 5.38145Z" fill="#FF4545"/>
<path d="M0.981934 8C0.981934 3.58125 4.56318 0 8.98193 0C13.4007 0 16.9819 3.58125 16.9819 8C16.9819 12.4187 13.4007 16 8.98193 16C4.56318 16 0.981934 12.4187 0.981934 8ZM12.6007 6.61875C12.9413 6.27813 12.9413 5.72187 12.6007 5.38125C12.2601 5.04063 11.7038 5.04063 11.3632 5.38125L7.98193 8.7625L6.60068 7.38125C6.26006 7.04063 5.70381 7.04063 5.36318 7.38125C5.02256 7.72187 5.02256 8.27812 5.36318 8.61875L7.36318 10.6187C7.70381 10.9594 8.26006 10.9594 8.60068 10.6187L12.6007 6.61875Z" fill="white"/>
</svg>
