<svg width="17" height="16" viewBox="0 0 17 16" fill="none" xmlns="http://www.w3.org/2000/svg">
<path d="M8.98193 16C13.4007 16 16.9819 12.4187 16.9819 8C16.9819 3.58125 13.4007 0 8.98193 0C4.56318 0 0.981934 3.58125 0.981934 8C0.981934 12.4187 4.56318 16 8.98193 16ZM6.80381 4.26562L8.98193 6.8375L11.1601 4.26562C11.4288 3.95 11.9007 3.90937 12.2163 4.17812C12.5319 4.44688 12.5726 4.91875 12.3038 5.23438L9.96318 8L12.3038 10.7656C12.5726 11.0813 12.5319 11.5562 12.2163 11.8219C11.9007 12.0875 11.4257 12.05 11.1601 11.7344L8.98193 9.1625L6.80381 11.7344C6.53506 12.05 6.06318 12.0906 5.74756 11.8219C5.43193 11.5531 5.39131 11.0813 5.66006 10.7656L8.00068 8L5.66006 5.23438C5.39131 4.91875 5.43193 4.44375 5.74756 4.17812C6.06318 3.9125 6.53818 3.95 6.80381 4.26562Z" fill="#2E2640"/>
</svg>
