<svg width="17" height="16" viewBox="0 0 17 16" fill="none" xmlns="http://www.w3.org/2000/svg">
<path d="M8.98193 16C13.4007 16 16.9819 12.4187 16.9819 8C16.9819 3.58125 13.4007 0 8.98193 0C4.56318 0 0.981934 3.58125 0.981934 8C0.981934 12.4187 4.56318 16 8.98193 16ZM12.5132 6.53125L8.51318 10.5312C8.21943 10.825 7.74443 10.825 7.45381 10.5312L5.45381 8.53125C5.16006 8.2375 5.16006 7.7625 5.45381 7.47188C5.74756 7.18125 6.22256 7.17813 6.51318 7.47188L7.98193 8.94063L11.4507 5.46875C11.7444 5.175 12.2194 5.175 12.5101 5.46875C12.8007 5.7625 12.8038 6.2375 12.5101 6.52812L12.5132 6.53125Z" fill="#2E2640"/>
</svg>
