<svg width="13" height="17" viewBox="0 0 13 17" fill="none" xmlns="http://www.w3.org/2000/svg">
<path d="M2.98193 0.496094C1.87881 0.496094 0.981934 1.39297 0.981934 2.49609V14.4961C0.981934 15.5992 1.87881 16.4961 2.98193 16.4961H10.9819C12.0851 16.4961 12.9819 15.5992 12.9819 14.4961V5.49609H8.98193C8.42881 5.49609 7.98193 5.04922 7.98193 4.49609V0.496094H2.98193ZM8.98193 0.496094V4.49609H12.9819L8.98193 0.496094ZM7.73193 7.74609V10.9367L8.70068 9.96797C8.99443 9.67422 9.46943 9.67422 9.76006 9.96797C10.0507 10.2617 10.0538 10.7367 9.76006 11.0273L7.51006 13.2773C7.21631 13.5711 6.74131 13.5711 6.45068 13.2773L4.20068 11.0273C3.90693 10.7336 3.90693 10.2586 4.20068 9.96797C4.49443 9.67734 4.96943 9.67422 5.26006 9.96797L6.22881 10.9367V7.74609C6.22881 7.33047 6.56318 6.99609 6.97881 6.99609C7.39443 6.99609 7.72881 7.33047 7.72881 7.74609H7.73193Z" fill="#2E2640"/>
</svg>
