<svg width="14" height="16" viewBox="0 0 14 16" fill="none" xmlns="http://www.w3.org/2000/svg">
<path d="M2.1871 15.6908C1.79134 16.0199 1.23727 16.0949 0.766527 15.8741C0.295779 15.6533 0 15.1826 0 14.666V1.33512C0 0.818548 0.299945 0.347801 0.766527 0.127008C1.23311 -0.0937853 1.78717 -0.0229648 2.1871 0.310308L10.1856 6.97576L10.6647 7.37568V1.33512C10.6647 0.597755 11.2604 0.00203056 11.9978 0.00203056C12.7352 0.00203056 13.3309 0.597755 13.3309 1.33512V14.666C13.3309 15.4034 12.7352 15.9991 11.9978 15.9991C11.2604 15.9991 10.6647 15.4034 10.6647 14.666V8.62545L10.1856 9.02538L2.1871 15.6908Z" fill="#2E2640"/>
</svg>
