<svg width="13" height="16" viewBox="0 0 13 16" fill="none" xmlns="http://www.w3.org/2000/svg">
<path d="M1.99609 0C1.44297 0 0.996094 0.446875 0.996094 1C0.996094 1.55313 1.44297 2 1.99609 2V2.34375C1.99609 3.66875 2.52422 4.94063 3.46172 5.87813L5.58047 8L3.46172 10.1219C2.52422 11.0594 1.99609 12.3313 1.99609 13.6562V14C1.44297 14 0.996094 14.4469 0.996094 15C0.996094 15.5531 1.44297 16 1.99609 16H2.99609H10.9961H11.9961C12.5492 16 12.9961 15.5531 12.9961 15C12.9961 14.4469 12.5492 14 11.9961 14V13.6562C11.9961 12.3313 11.468 11.0594 10.5305 10.1219L8.41172 8L10.5336 5.87813C11.4711 4.94063 11.9992 3.66875 11.9992 2.34375V2C12.5523 2 12.9992 1.55313 12.9992 1C12.9992 0.446875 12.5523 0 11.9992 0H10.9961H2.99609H1.99609ZM3.99609 2.34375V2H9.99609V2.34375C9.99609 2.9375 9.82109 3.5125 9.49609 4H4.49609C4.17422 3.5125 3.99609 2.9375 3.99609 2.34375ZM4.49609 12C4.60547 11.8344 4.73359 11.6781 4.87422 11.5344L6.99609 9.41562L9.11797 11.5375C9.26172 11.6813 9.38672 11.8375 9.49609 12.0031H4.49609V12Z" fill="#2E2640"/>
</svg>
