<svg width="13" height="16" viewBox="0 0 13 16" fill="none" xmlns="http://www.w3.org/2000/svg">
<path d="M1.98584 14.0002H11.9858C12.539 14.0002 12.9858 14.4471 12.9858 15.0002C12.9858 15.5534 12.539 16.0002 11.9858 16.0002H1.98584C1.43365 16.0002 0.98584 15.5534 0.98584 15.0002C0.98584 14.4471 1.43365 14.0002 1.98584 14.0002ZM1.98584 0.000244141H11.9858C12.539 0.000244141 12.9858 0.448057 12.9858 1.00024C12.9858 1.55243 12.539 2.00024 11.9858 2.00024H9.98584V2.34337C9.98584 3.13774 9.67021 3.90337 9.10771 4.46587L6.98584 6.58462L4.86396 4.46587C4.30146 3.90337 3.98584 3.13774 3.98584 2.34337V2.00024H1.98584C1.43365 2.00024 0.98584 1.55243 0.98584 1.00024C0.98584 0.448057 1.43365 0.000244141 1.98584 0.000244141Z" fill="#FF4545"/>
<path d="M3.45021 10.1221L5.57021 8.00024L3.45021 5.87837C2.51271 4.94087 1.98584 3.66899 1.98584 2.34337V2.00024H3.98584V2.34337C3.98584 3.13774 4.30146 3.90337 4.86396 4.46587L6.98584 6.58462L9.10771 4.46587C9.67021 3.90337 9.98584 3.13774 9.98584 2.34337V2.00024H11.9858V2.34337C11.9858 3.66899 11.4577 4.94087 10.5202 5.87837L8.40146 8.00024L10.5202 10.1221C11.4577 11.0596 11.9858 12.3315 11.9858 13.6565V14.0002H9.98584V13.6565C9.98584 12.8627 9.67021 12.0971 9.10771 11.5346L6.98584 9.41587L4.86396 11.5346C4.30146 12.0971 3.98584 12.8627 3.98584 13.6565V14.0002H1.98584V13.6565C1.98584 12.3315 2.51271 11.0596 3.45021 10.1221ZM4.15771 10.8284L3.45021 10.1221L4.15771 10.8284Z" fill="white"/>
</svg>
